<svg width="103" height="70" viewBox="0 0 103 70" fill="none" xmlns="http://www.w3.org/2000/svg">
<rect width="103" height="70" fill="#FCFCFC"/>
<path d="M92.25 34.5C92.25 42.3395 87.781 49.509 80.4104 54.7484C73.0414 59.9866 62.8224 63.25 51.5 63.25C40.1776 63.25 29.9586 59.9866 22.5896 54.7484C15.219 49.509 10.75 42.3395 10.75 34.5C10.75 26.6605 15.219 19.491 22.5896 14.2516C29.9586 9.01344 40.1776 5.75 51.5 5.75C62.8224 5.75 73.0414 9.01344 80.4104 14.2516C87.781 19.491 92.25 26.6605 92.25 34.5Z" stroke="#2D2D2D" stroke-width="1.5"/>
<rect y="12" width="103" height="45" fill="#FCFCFC"/>
<path d="M13.4083 40.05C14.775 40.05 15.8333 39.8583 16.5833 39.475C17.3333 39.0917 17.7083 38.5333 17.7083 37.8C17.7083 37.15 17.4833 36.5917 17.0333 36.125C16.5833 35.6417 16.025 35.2333 15.3583 34.9C14.6916 34.5667 13.7833 34.175 12.6333 33.725C12.5333 33.6917 12.2916 33.6 11.9083 33.45C10.3416 32.8167 9.1333 32.1833 8.2833 31.55C7.44997 30.9167 7.0333 30.1 7.0333 29.1C7.0333 27.9833 7.47497 27.1417 8.3583 26.575C9.24163 26.0083 10.375 25.725 11.7583 25.725C12.775 25.725 13.7083 25.8583 14.5583 26.125C15.425 26.375 16.1083 26.725 16.6083 27.175C17.125 27.625 17.3833 28.1333 17.3833 28.7C17.1833 28.8 16.9916 28.85 16.8083 28.85C16.6083 28.85 16.4 28.8083 16.1833 28.725C15.9833 28.625 15.6833 28.4667 15.2833 28.25C14.6333 27.9 14.025 27.625 13.4583 27.425C12.8916 27.2083 12.225 27.1 11.4583 27.1C10.4916 27.1 9.7083 27.2667 9.1083 27.6C8.5083 27.9333 8.2083 28.4 8.2083 29C8.2083 29.4667 8.4083 29.8917 8.8083 30.275C9.22497 30.6583 9.74163 31 10.3583 31.3C10.9916 31.5833 11.8333 31.925 12.8833 32.325C14.2166 32.8417 15.3166 33.325 16.1833 33.775C17.05 34.225 17.7833 34.8 18.3833 35.5C19 36.1833 19.3083 37 19.3083 37.95C19.3083 39.0667 18.775 39.9333 17.7083 40.55C16.6416 41.15 15.3166 41.45 13.7333 41.45C12.4833 41.45 11.25 41.2667 10.0333 40.9C8.81663 40.5333 7.77497 39.9917 6.9083 39.275C6.04163 38.5417 5.49163 37.6667 5.2583 36.65C5.2583 36.2 5.3833 35.8167 5.6333 35.5C5.8833 35.1667 6.19163 35 6.5583 35C6.5583 36.0833 6.8583 37.0083 7.4583 37.775C8.07497 38.525 8.89997 39.0917 9.9333 39.475C10.9833 39.8583 12.1416 40.05 13.4083 40.05ZM22.6733 40.825C22.3067 39.0083 22.0233 36.8583 21.8233 34.375C21.64 31.875 21.5483 29.4583 21.5483 27.125C21.5483 25.9583 21.5733 24.925 21.6233 24.025C21.6233 23.8083 21.79 23.7 22.1233 23.7C22.39 23.7 22.5567 23.7667 22.6233 23.9C22.7067 24.0333 22.7483 24.2417 22.7483 24.525C22.7483 27.225 22.7983 29.5333 22.8983 31.45C22.9983 33.35 23.1317 35.4 23.2983 37.6C23.3983 39.0167 23.465 39.975 23.4983 40.475C23.515 40.7417 23.3733 40.875 23.0733 40.875C22.9733 40.875 22.84 40.8583 22.6733 40.825ZM31.9226 41C30.1892 41 28.6809 40.7 27.3976 40.1C26.1309 39.4833 25.4976 38.4083 25.4976 36.875C25.4976 36.325 25.6642 35.7917 25.9976 35.275C26.3309 34.7583 26.8226 34.3417 27.4726 34.025C28.1226 33.6917 28.9142 33.525 29.8476 33.525C30.5642 33.525 31.1726 33.5583 31.6726 33.625C32.1726 33.6917 32.7476 33.875 33.3976 34.175C34.0476 34.475 34.7226 34.95 35.4226 35.6C35.1559 34.45 34.7559 33.4417 34.2226 32.575C33.6892 31.7083 33.0892 31.0417 32.4226 30.575C31.7726 30.0917 31.1309 29.85 30.4976 29.85C30.1976 29.85 29.9142 29.9083 29.6476 30.025C29.3976 30.125 29.0892 30.275 28.7226 30.475C28.3059 30.7417 27.9976 30.875 27.7976 30.875C27.7142 30.875 27.6392 30.85 27.5726 30.8C27.5226 30.7333 27.4976 30.6583 27.4976 30.575C27.4976 29.9083 27.7892 29.3917 28.3726 29.025C28.9726 28.6583 29.6976 28.4917 30.5476 28.525C31.7142 28.5917 32.7809 29.0917 33.7476 30.025C34.7142 30.9417 35.4726 32.0833 36.0226 33.45C36.5892 34.8167 36.8726 36.1583 36.8726 37.475C36.8726 37.6917 36.8559 38 36.8226 38.4L36.0226 38.35C35.3892 37.0667 34.5726 36.1583 33.5726 35.625C32.5892 35.075 31.5976 34.8 30.5976 34.8C29.3142 34.8 28.3976 34.9917 27.8476 35.375C27.2976 35.7583 27.0226 36.3167 27.0226 37.05C27.0226 37.8167 27.4059 38.4333 28.1726 38.9C28.9392 39.3667 29.9226 39.6 31.1226 39.6C31.7892 39.6 32.3226 39.5667 32.7226 39.5C33.1226 39.4167 33.5392 39.3083 33.9726 39.175C34.3226 39.0583 34.6309 38.975 34.8976 38.925C35.1642 38.875 35.5059 38.85 35.9226 38.85C36.3892 38.85 36.6809 38.8833 36.7976 38.95C36.9309 39.0167 36.9976 39.1667 36.9976 39.4C36.9976 39.5667 36.6559 39.775 35.9726 40.025C35.2892 40.275 34.5226 40.5 33.6726 40.7C32.8226 40.9 32.2392 41 31.9226 41ZM41.3735 41.1C41.1402 41.1667 41.0069 41.2 40.9735 41.2C40.8402 41.2 40.6985 41.1333 40.5485 41C39.9985 40.1833 39.5985 38.7583 39.3485 36.725C39.1152 34.6917 38.9985 32.9417 38.9985 31.475C38.9985 31.2417 39.1652 31.125 39.4985 31.125C39.9985 31.125 40.2485 31.4 40.2485 31.95C40.2485 32.1 40.2402 32.225 40.2235 32.325C40.3735 31.975 40.6569 31.6167 41.0735 31.25C41.4902 30.8833 41.9735 30.575 42.5235 30.325C43.0735 30.075 43.6319 29.95 44.1985 29.95C45.9819 29.95 47.2819 30.7417 48.0985 32.325C48.9152 33.8917 49.3235 35.8417 49.3235 38.175C49.3235 38.975 49.2402 39.6167 49.0735 40.1C48.9069 40.5667 48.6819 40.8 48.3985 40.8C48.0985 40.8 47.9485 40.7083 47.9485 40.525C48.0652 39.6417 48.1235 38.775 48.1235 37.925C48.1235 35.775 47.7485 34.15 46.9985 33.05C46.2485 31.9333 45.2569 31.375 44.0235 31.375C43.4235 31.375 42.8402 31.525 42.2735 31.825C41.7235 32.125 41.2735 32.5417 40.9235 33.075C40.5902 33.6083 40.4235 34.2167 40.4235 34.9C40.4235 35.6667 40.4652 36.3333 40.5485 36.9C40.6319 37.4667 40.7652 38.15 40.9485 38.95C41.1485 39.7333 41.2902 40.45 41.3735 41.1ZM55.5276 53.2C54.1276 53.2 52.9526 52.8 52.0026 52C51.0693 51.2167 50.511 49.8917 50.3276 48.025C50.311 47.7417 50.3526 47.525 50.4526 47.375C50.5693 47.225 50.7193 47.15 50.9026 47.15C51.1026 47.15 51.2776 47.225 51.4276 47.375C51.5776 47.5417 51.6443 47.7583 51.6276 48.025C51.6276 49.125 52.0026 49.9917 52.7526 50.625C53.5193 51.275 54.4943 51.6 55.6776 51.6C56.361 51.6 56.961 51.35 57.4776 50.85C58.011 50.35 58.4193 49.65 58.7026 48.75C58.986 47.8667 59.1276 46.85 59.1276 45.7C59.1276 43.6833 59.1526 41.725 59.2026 39.825L59.2276 38.55C58.5776 39.2333 57.986 39.7333 57.4526 40.05C56.936 40.3667 56.311 40.525 55.5776 40.525C54.2943 40.525 53.3443 40.1833 52.7276 39.5C52.1276 38.8 51.8276 37.7333 51.8276 36.3C51.8276 35.4833 52.0443 34.6333 52.4776 33.75C52.9276 32.85 53.536 32.1 54.3026 31.5C55.086 30.9 55.9693 30.6 56.9526 30.6C57.286 30.6 57.5943 30.6333 57.8776 30.7C58.9443 30.9333 59.661 31.925 60.0276 33.675C60.3943 35.425 60.5776 37.6917 60.5776 40.475C60.5776 41.2417 60.561 42.2583 60.5276 43.525L60.5026 45.9C60.5026 46.85 60.3526 47.8833 60.0526 49C59.7526 50.1333 59.2276 51.1167 58.4776 51.95C57.7276 52.7833 56.7443 53.2 55.5276 53.2ZM55.2026 38.875C56.436 38.875 57.3693 38.5833 58.0026 38C58.636 37.4 58.9526 36.525 58.9526 35.375C58.9526 35.225 58.936 34.9667 58.9026 34.6C58.8193 33.8333 58.6193 33.2333 58.3026 32.8C58.0026 32.35 57.5276 32.125 56.8776 32.125C56.1943 32.125 55.5693 32.3667 55.0026 32.85C54.436 33.3333 53.9943 33.9333 53.6776 34.65C53.361 35.35 53.2026 36.0083 53.2026 36.625C53.2026 37.2417 53.386 37.775 53.7526 38.225C54.1193 38.6583 54.6026 38.875 55.2026 38.875ZM74.0825 40.875C73.7825 40.875 73.5409 40.75 73.3575 40.5C73.1909 40.2333 73.0409 39.8333 72.9075 39.3C72.7742 38.75 72.5659 37.8 72.2825 36.45C71.9992 37.5667 71.4659 38.4583 70.6825 39.125C69.8992 39.775 68.9409 40.1 67.8075 40.1C66.7742 40.1 65.8992 39.7417 65.1825 39.025C64.4825 38.2917 63.9575 37.3333 63.6075 36.15C63.2575 34.95 63.0825 33.6583 63.0825 32.275C63.0825 31.6417 63.1409 31.1 63.2575 30.65C63.3909 30.1833 63.5492 29.8333 63.7325 29.6C63.9325 29.3667 64.1242 29.2583 64.3075 29.275C64.5075 29.275 64.6075 29.4083 64.6075 29.675C64.6075 29.8917 64.5492 30.2333 64.4325 30.7C64.3159 31.2167 64.2575 31.8083 64.2575 32.475C64.2575 33.475 64.3992 34.45 64.6825 35.4C64.9825 36.35 65.4159 37.1333 65.9825 37.75C66.5659 38.35 67.2492 38.65 68.0325 38.65C68.6825 38.65 69.2742 38.4583 69.8075 38.075C70.3409 37.6917 70.7575 37.2083 71.0575 36.625C71.3742 36.0417 71.5325 35.4667 71.5325 34.9V30.925C71.7159 30.575 71.9659 30.4 72.2825 30.4C72.5659 30.4 72.7575 30.6417 72.8575 31.125C72.9575 31.6083 73.0075 32.2917 73.0075 33.175C73.0075 33.925 72.9992 34.5 72.9825 34.9C73.0825 35.45 73.2325 36.0083 73.4325 36.575C73.6492 37.1417 73.9159 37.7833 74.2325 38.5C74.6159 39.3833 74.8075 39.925 74.8075 40.125C74.8075 40.625 74.5659 40.875 74.0825 40.875ZM76.9409 38.05C77.1743 37.8667 77.3993 37.775 77.6159 37.775C77.8159 37.775 78.0076 37.8333 78.1909 37.95C78.3909 38.0667 78.5909 38.2167 78.7909 38.4C78.9909 38.5667 79.1493 38.6917 79.2659 38.775C79.6493 39.075 80.1743 39.3083 80.8409 39.475C81.5076 39.6417 82.2159 39.725 82.9659 39.725C83.8159 39.725 84.5743 39.5667 85.2409 39.25C85.9243 38.9167 86.2659 38.475 86.2659 37.925C86.2659 37.425 86.0826 37.0333 85.7159 36.75C85.3493 36.45 84.9076 36.2333 84.3909 36.1C83.8743 35.9667 83.1909 35.8417 82.3409 35.725C81.1909 35.5917 80.2743 35.425 79.5909 35.225C78.9243 35.025 78.3909 34.7 77.9909 34.25C77.5909 33.7833 77.3909 33.1333 77.3909 32.3C77.3909 31.4 77.8159 30.7333 78.6659 30.3C79.5159 29.85 80.4909 29.625 81.5909 29.625C82.5909 29.625 83.4409 29.8417 84.1409 30.275C84.8576 30.6917 85.2243 31.2917 85.2409 32.075C85.2743 32.525 85.2076 32.8833 85.0409 33.15C84.8743 33.4 84.6743 33.525 84.4409 33.525C84.3076 33.525 84.1909 33.475 84.0909 33.375C84.0076 33.275 83.9659 33.1417 83.9659 32.975C83.9659 32.7083 84.0576 32.4167 84.2409 32.1C84.1576 31.7 83.8826 31.4 83.4159 31.2C82.9659 31 82.4243 30.9 81.7909 30.9C80.8576 30.9 80.1159 31.075 79.5659 31.425C79.0159 31.7583 78.7409 32.1583 78.7409 32.625C78.7409 33.125 78.9409 33.5083 79.3409 33.775C79.7409 34.0417 80.2243 34.2333 80.7909 34.35C81.3743 34.45 82.1993 34.55 83.2659 34.65C84.1493 34.7667 84.8659 34.9083 85.4159 35.075C85.9826 35.2417 86.4576 35.5667 86.8409 36.05C87.2243 36.5167 87.4159 37.1917 87.4159 38.075C87.4159 38.9917 86.9909 39.7167 86.1409 40.25C85.2909 40.7667 84.2743 41.025 83.0909 41.025C81.5743 41.025 80.2159 40.7667 79.0159 40.25C77.8326 39.7333 77.1409 39 76.9409 38.05ZM95.4356 41C94.369 41 93.3856 40.7917 92.4856 40.375C91.5856 39.9583 90.869 39.3667 90.3356 38.6C89.8023 37.8333 89.5356 36.95 89.5356 35.95C89.5356 34.8333 89.744 33.7917 90.1606 32.825C90.5773 31.8417 91.1856 31.0583 91.9856 30.475C92.8023 29.875 93.7523 29.575 94.8356 29.575C95.969 29.575 96.8273 29.9417 97.4106 30.675C97.994 31.3917 98.269 32.3 98.2356 33.4C98.2356 34.3833 97.844 35.1333 97.0606 35.65C96.294 36.1667 95.3106 36.425 94.1106 36.425C93.9273 36.425 93.6523 36.4083 93.2856 36.375C92.6856 36.3083 92.2606 36.2167 92.0106 36.1C91.7606 35.9833 91.6356 35.75 91.6356 35.4C91.6356 35.2833 91.669 35.2 91.7356 35.15C91.8023 35.0833 91.9356 35.05 92.1356 35.05C92.3523 35.05 92.7356 35.1 93.2856 35.2C93.819 35.3 94.294 35.35 94.7106 35.35C96.244 35.35 97.0106 34.6833 97.0106 33.35C97.0106 32.55 96.8606 31.9167 96.5606 31.45C96.2773 30.9833 95.769 30.75 95.0356 30.75C94.2356 30.75 93.519 30.9667 92.8856 31.4C92.2523 31.8167 91.7606 32.3667 91.4106 33.05C91.0773 33.7333 90.9106 34.4583 90.9106 35.225C90.9106 36.5417 91.2773 37.625 92.0106 38.475C92.744 39.3083 93.8773 39.725 95.4106 39.725C95.594 39.725 95.9023 39.7083 96.3356 39.675C96.519 39.6583 96.744 39.6083 97.0106 39.525C97.2773 39.4417 97.469 39.3833 97.5856 39.35C98.3023 39.1 98.8273 38.975 99.1606 38.975C99.4106 38.975 99.6023 39.0417 99.7356 39.175C99.319 39.8083 98.694 40.275 97.8606 40.575C97.044 40.8583 96.2356 41 95.4356 41Z" fill="black"/>
</svg>
