<svg width="122" height="77" viewBox="0 0 122 77" fill="none" xmlns="http://www.w3.org/2000/svg">
<g clip-path="url(#clip0_55_3383)">
<rect width="122" height="77" fill="white"/>
<g clip-path="url(#clip1_55_3383)">
<g clip-path="url(#clip2_55_3383)">
<g clip-path="url(#clip3_55_3383)">
<g clip-path="url(#clip4_55_3383)">
<g clip-path="url(#clip5_55_3383)">
<g clip-path="url(#clip6_55_3383)">
<g clip-path="url(#clip7_55_3383)">
<g clip-path="url(#clip8_55_3383)">
<g clip-path="url(#clip9_55_3383)">
<path d="M10.9988 45.7912C10.0899 45.7912 9.35022 45.6128 8.77989 45.2559C8.20956 44.899 7.83528 44.5065 7.65705 44.0782H7.55011V45.4701H5.51831V41.3213H7.55011V41.8031C7.55011 42.5526 7.78181 43.1414 8.2452 43.5697C8.7086 43.9979 9.45715 44.2121 10.4909 44.2121C12.4157 44.2121 13.3782 43.534 13.3782 42.1778C13.3782 41.1251 12.6831 40.4291 11.2929 40.0901L9.84926 39.7421C8.42343 39.4031 7.36297 38.8856 6.66788 38.1897C5.97279 37.4938 5.62525 36.5391 5.62525 35.3258C5.62525 34.0231 6.06191 33.015 6.93522 32.3012C7.80854 31.5874 8.96703 31.2306 10.4107 31.2306C11.3018 31.2306 12.0147 31.3822 12.5494 31.6856C13.0841 31.9889 13.4316 32.3547 13.592 32.783H13.699V31.5518H15.7308V35.7005H13.699V34.9243C13.699 33.5146 12.7455 32.8098 10.8384 32.8098C10.0186 32.8098 9.39121 32.965 8.95633 33.2755C8.51789 33.5895 8.29867 34.0588 8.29867 34.6834C8.29867 35.7897 9.01158 36.5213 10.4374 36.8782L11.8009 37.1994C13.2445 37.5206 14.3228 38.0059 15.0357 38.6554C15.7486 39.3085 16.1051 40.2685 16.1051 41.5355C16.1051 42.8202 15.647 43.8498 14.7309 44.6243C13.8113 45.4022 12.5672 45.7912 10.9988 45.7912ZM18.2438 45.4701V44.0247H20.0617V27.5904L18.2438 27.2424V26.0647L23.056 25.1279V44.0247H24.8739V45.4701H18.2438ZM30.9693 45.7912C29.5791 45.7912 28.5311 45.4469 27.8254 44.7581C27.1196 44.0729 26.7667 43.1325 26.7667 41.937C26.7667 40.5808 27.2497 39.5548 28.2157 38.8589C29.1745 38.163 30.7412 37.815 32.9156 37.815H34.8458V35.9949C34.8458 34.9064 34.6034 34.0767 34.1186 33.5057C33.6374 32.9347 32.8799 32.6492 31.8462 32.6492C30.9729 32.6492 30.3134 32.7741 29.8679 33.0239V33.131C30.0675 33.2202 30.251 33.3754 30.4186 33.5967C30.5861 33.8215 30.6699 34.1302 30.6699 34.5228C30.6699 35.0224 30.5237 35.4239 30.2314 35.7272C29.9356 36.0306 29.5132 36.1823 28.9642 36.1823C28.4973 36.1823 28.1087 36.0252 27.7986 35.7112C27.4849 35.4007 27.3281 34.9778 27.3281 34.4425C27.3281 34.0321 27.4493 33.6342 27.6917 33.2487C27.9305 32.8669 28.2834 32.5243 28.7504 32.2209C29.2102 31.9176 29.7752 31.6767 30.4453 31.4982C31.1119 31.3198 31.8836 31.2306 32.7605 31.2306C34.4358 31.2306 35.6995 31.6231 36.5514 32.4083C37.4105 33.1934 37.84 34.2908 37.84 35.7005V44.0515H39.6526V45.2559C39.4066 45.3987 39.0858 45.5236 38.6901 45.6307C38.3016 45.7377 37.8846 45.7912 37.439 45.7912C36.6191 45.7912 36.0167 45.5807 35.6318 45.1596C35.2468 44.742 35.0543 44.2031 35.0543 43.5429V43.4091H34.9206C34.7994 43.7124 34.6408 44.0015 34.4448 44.2763C34.2451 44.5547 33.9903 44.8098 33.6802 45.0418C33.3665 45.2738 32.9868 45.4576 32.5413 45.5932C32.0957 45.7252 31.5717 45.7912 30.9693 45.7912ZM32.1403 43.9176C32.9245 43.9176 33.5714 43.7303 34.0812 43.3555C34.5909 42.9808 34.8458 42.3652 34.8458 41.5087V39.1265H33.2417C31.9727 39.1265 31.0887 39.3317 30.5897 39.7421C30.0906 40.1526 29.8411 40.7414 29.8411 41.5087V42.0172C29.8411 42.6596 30.0461 43.1361 30.456 43.4466C30.8659 43.7606 31.4273 43.9176 32.1403 43.9176ZM41.6576 45.4701V44.0247H43.4756V33.693L41.6576 33.3451V32.1674L46.3896 31.2306V33.7198H46.5233C46.6302 33.4165 46.796 33.1131 47.0205 32.8098C47.2415 32.5064 47.5178 32.2388 47.8493 32.0068C48.1772 31.7748 48.5604 31.5874 48.9989 31.4447C49.4337 31.3019 49.9274 31.2306 50.4799 31.2306C52.1731 31.2306 53.3762 31.6624 54.0891 32.526C54.802 33.3933 55.1584 34.6923 55.1584 36.4232V44.0247H56.9764V45.4701H50.3997V44.0247H52.1642V36.5838C52.1642 35.4239 51.9414 34.5763 51.4958 34.041C51.0503 33.5057 50.3463 33.238 49.3838 33.238C49.0274 33.238 48.6763 33.2862 48.3305 33.3826C47.9812 33.4825 47.6693 33.6342 47.3948 33.8376C47.1168 34.0446 46.894 34.2997 46.7265 34.6031C46.5554 34.9064 46.4698 35.2722 46.4698 35.7005V44.0247H48.2343V45.4701H41.6576ZM64.9966 51.1444C63.8203 51.1444 62.8312 51.0695 62.0291 50.9196C61.2271 50.7661 60.5855 50.5502 60.1043 50.2719C59.6231 49.9971 59.2755 49.6598 59.0616 49.2601C58.8478 48.8568 58.7408 48.4143 58.7408 47.9325C58.7408 47.5756 58.821 47.2509 58.9814 46.9582C59.1418 46.662 59.3557 46.4033 59.6231 46.182C59.8904 45.9572 60.2023 45.7645 60.5588 45.6039C60.9152 45.4433 61.2806 45.3184 61.6549 45.2292V45.1221C61.0667 44.9615 60.6122 44.676 60.2914 44.2656C59.9706 43.8552 59.8102 43.3377 59.8102 42.7132C59.8102 41.9459 60.0561 41.3481 60.5481 40.9198C61.0364 40.4916 61.6192 40.1882 62.2965 40.0098V39.9027C61.441 39.5459 60.7637 39.023 60.2647 38.3343C59.7656 37.649 59.5161 36.8068 59.5161 35.8075C59.5161 35.0938 59.6551 34.4514 59.9332 33.8804C60.2076 33.3094 60.5908 32.8276 61.0827 32.435C61.5711 32.0425 62.1539 31.7427 62.8312 31.5357C63.5084 31.3323 64.257 31.2306 65.0768 31.2306C65.8789 31.2306 66.5561 31.3109 67.1086 31.4715C67.6611 31.6321 68.1691 31.864 68.6325 32.1674C68.6681 31.1503 68.8909 30.4312 69.3008 30.01C69.7108 29.5925 70.2365 29.3837 70.8782 29.3837C71.3237 29.3837 71.6944 29.5122 71.9903 29.7691C72.2826 30.0297 72.4287 30.3919 72.4287 30.8558C72.4287 31.2841 72.2915 31.6356 72.017 31.9104C71.739 32.1888 71.3594 32.328 70.8782 32.328C70.3435 32.328 69.9068 32.1317 69.5682 31.7391H69.4613V32.8365C69.7821 33.1577 70.0672 33.5539 70.3167 34.0249C70.5663 34.4996 70.691 35.0938 70.691 35.8075C70.691 36.5213 70.5538 37.1637 70.2793 37.7347C70.0013 38.3057 69.6127 38.7875 69.1137 39.1801C68.6147 39.5726 68.0229 39.876 67.3386 40.0901C66.6506 40.3042 65.8967 40.4113 65.0768 40.4113C64.7738 40.4113 64.4851 40.3934 64.2106 40.3578C63.9326 40.3221 63.6599 40.2775 63.3926 40.2239C63.0183 40.3488 62.6975 40.5362 62.4301 40.786C62.1628 41.0358 62.0291 41.3392 62.0291 41.6961C62.0291 42.1065 62.186 42.4009 62.4997 42.5793C62.8098 42.7578 63.3302 42.847 64.0609 42.847H67.1888C68.9177 42.847 70.1742 43.186 70.9584 43.8641C71.7426 44.5422 72.1347 45.4701 72.1347 46.6478C72.1347 48.0396 71.543 49.137 70.3595 49.94C69.1725 50.743 67.3849 51.1444 64.9966 51.1444ZM65.1036 38.9659C65.9591 38.9659 66.6007 38.734 67.0284 38.27C67.4562 37.8061 67.6701 37.1369 67.6701 36.2626V35.3793C67.6701 34.5049 67.4562 33.8358 67.0284 33.3718C66.6007 32.9079 65.9591 32.6759 65.1036 32.6759C64.2481 32.6759 63.6065 32.9079 63.1787 33.3718C62.751 33.8358 62.5371 34.5049 62.5371 35.3793V36.2626C62.5371 37.1369 62.751 37.8061 63.1787 38.27C63.6065 38.734 64.2481 38.9659 65.1036 38.9659ZM61.2538 47.6916C61.2538 48.3519 61.5301 48.8426 62.0826 49.1638C62.6351 49.485 63.4193 49.6455 64.4352 49.6455H65.8789C67.0908 49.6455 68.0229 49.4546 68.6753 49.0728C69.324 48.6873 69.6484 48.1467 69.6484 47.4507C69.6484 46.8084 69.431 46.3444 68.9961 46.0589C68.5576 45.7734 67.8483 45.6307 66.868 45.6307H62.5371C61.6816 46.0768 61.2538 46.7637 61.2538 47.6916ZM79.9945 45.7912C78.3014 45.7912 77.0983 45.3576 76.3854 44.4904C75.6725 43.6268 75.316 42.3295 75.316 40.5987V33.693L73.4981 33.3451V32.1674L78.3103 31.2306V40.4381C78.3103 41.5979 78.5331 42.4455 78.9786 42.9808C79.4242 43.5161 80.1282 43.7838 81.0906 43.7838C81.4471 43.7838 81.7982 43.7338 82.144 43.6339C82.4933 43.5376 82.8052 43.3859 83.0797 43.1789C83.3577 42.9755 83.5805 42.7221 83.748 42.4187C83.9191 42.1154 84.0047 41.7496 84.0047 41.3213V33.693L82.1867 33.3451V32.1674L86.9989 31.2306V43.3288L88.8168 43.6767V44.8544L84.0849 45.7912V43.302H83.9512C83.8443 43.6054 83.6785 43.9087 83.4539 44.2121C83.2329 44.5154 82.9567 44.7831 82.6252 45.015C82.2972 45.247 81.9141 45.4344 81.4756 45.5771C81.0407 45.7199 80.547 45.7912 79.9945 45.7912ZM96.5163 45.7912C95.6073 45.7912 94.8677 45.6128 94.2973 45.2559C93.727 44.899 93.3527 44.5065 93.1745 44.0782H93.0676V45.4701H91.0358V41.3213H93.0676V41.8031C93.0676 42.5526 93.2993 43.1414 93.7627 43.5697C94.2261 43.9979 94.9746 44.2121 96.0083 44.2121C97.9332 44.2121 98.8956 43.534 98.8956 42.1778C98.8956 41.1251 98.2005 40.4291 96.8104 40.0901L95.3667 39.7421C93.9409 39.4031 92.8804 38.8856 92.1853 38.1897C91.4903 37.4938 91.1427 36.5391 91.1427 35.3258C91.1427 34.0231 91.5794 33.015 92.4527 32.3012C93.326 31.5874 94.4845 31.2306 95.9281 31.2306C96.8193 31.2306 97.5322 31.3822 98.0669 31.6856C98.6016 31.9889 98.9491 32.3547 99.1095 32.783H99.2164V31.5518H101.248V35.7005H99.2164V34.9243C99.2164 33.5146 98.2629 32.8098 96.3559 32.8098C95.536 32.8098 94.9069 32.965 94.4685 33.2755C94.0336 33.5895 93.8161 34.0588 93.8161 34.6834C93.8161 35.7897 94.529 36.5213 95.9549 36.8782L97.3183 37.1994C98.762 37.5206 99.8402 38.0059 100.553 38.6554C101.266 39.3085 101.623 40.2685 101.623 41.5355C101.623 42.8202 101.163 43.8498 100.243 44.6243C99.3269 45.4022 98.0847 45.7912 96.5163 45.7912ZM110.546 45.7912C109.513 45.7912 108.595 45.6164 107.793 45.2666C106.991 44.9205 106.313 44.4262 105.761 43.7838C105.208 43.1414 104.786 42.3741 104.494 41.4819C104.198 40.5897 104.05 39.5994 104.05 38.5109C104.05 37.4046 104.207 36.4053 104.521 35.5131C104.831 34.6209 105.267 33.8572 105.83 33.222C106.39 32.5903 107.058 32.0996 107.836 31.7498C108.609 31.4037 109.459 31.2306 110.386 31.2306C111.331 31.2306 112.177 31.3858 112.926 31.6963C113.674 32.0103 114.312 32.4529 114.84 33.0239C115.364 33.5949 115.769 34.2819 116.054 35.0849C116.339 35.8878 116.481 36.78 116.481 37.7615V38.4841H107.285V39.3407C107.285 40.7325 107.632 41.8067 108.327 42.5633C109.023 43.3234 109.958 43.7035 111.135 43.7035C112.168 43.7035 113.002 43.4751 113.637 43.0183C114.268 42.5651 114.735 41.9994 115.038 41.3213L116.187 42.0172C116.027 42.4812 115.792 42.9362 115.482 43.3823C115.168 43.8284 114.779 44.2299 114.316 44.5868C113.853 44.9437 113.309 45.2327 112.685 45.454C112.061 45.6788 111.348 45.7912 110.546 45.7912ZM107.285 36.7176V37.0655H113.38V36.7711C113.38 35.4864 113.136 34.4907 112.648 33.784C112.156 33.081 111.402 32.7295 110.386 32.7295C109.388 32.7295 108.622 33.0721 108.087 33.7573C107.552 34.4461 107.285 35.4328 107.285 36.7176Z" fill="#030303"/>
</g>
</g>
</g>
</g>
</g>
</g>
</g>
<path d="M25.71 18.9863C35.6469 10.7868 48.123 6.30273 61 6.30273C73.877 6.30273 86.3531 10.7868 96.29 18.9863H93.9465C84.5646 11.5647 72.957 7.52768 61 7.52768C49.043 7.52768 37.4355 11.5647 28.0536 18.9863H25.71ZM25.71 57.2864C35.6469 65.4859 48.123 69.97 61 69.97C73.877 69.97 86.3531 65.4859 96.29 57.2864H93.9465C84.5646 64.7079 72.957 68.745 61 68.745C49.043 68.745 37.4355 64.7079 28.0536 57.2864H25.71Z" fill="#030303"/>
</g>
</g>
</g>
<defs>
<clipPath id="clip0_55_3383">
<rect width="122" height="77" fill="white"/>
</clipPath>
<clipPath id="clip1_55_3383">
<rect width="180" height="112.273" fill="white" transform="translate(-29 -18)"/>
</clipPath>
<clipPath id="clip2_55_3383">
<rect width="179.569" height="112.364" fill="white" transform="translate(-28.7847 -18.0459)"/>
</clipPath>
<clipPath id="clip3_55_3383">
<rect width="110.974" height="26.0165" fill="white" transform="translate(5.51318 25.1279)"/>
</clipPath>
<clipPath id="clip4_55_3383">
<rect width="110.974" height="26.0165" fill="white" transform="translate(5.51318 25.1279)"/>
</clipPath>
<clipPath id="clip5_55_3383">
<rect width="110.974" height="26.0165" fill="white" transform="translate(5.51318 25.1279)"/>
</clipPath>
<clipPath id="clip6_55_3383">
<rect width="110.974" height="26.0165" fill="white" transform="translate(5.51318 25.1279)"/>
</clipPath>
<clipPath id="clip7_55_3383">
<rect width="110.974" height="26.0165" fill="white" transform="translate(5.51318 25.1279)"/>
</clipPath>
<clipPath id="clip8_55_3383">
<rect width="110.974" height="26.0165" fill="white" transform="translate(5.51318 25.1279)"/>
</clipPath>
<clipPath id="clip9_55_3383">
<rect width="110.974" height="26.0165" fill="white" transform="translate(5.51318 25.1279)"/>
</clipPath>
</defs>
</svg>
