<svg width="479" height="375" viewBox="0 0 479 375" fill="none" xmlns="http://www.w3.org/2000/svg">
<path d="M297.157 344.525L290.566 344.525L287.431 319.149L297.159 319.149L297.157 344.525Z" fill="#9E616A"/>
<path d="M298.838 350.903L277.586 350.902V350.634C277.586 348.444 278.458 346.344 280.009 344.795C281.56 343.247 283.664 342.377 285.858 342.377H285.858L298.838 342.377L298.838 350.903Z" fill="#D3D3D3"/>
<path d="M273.503 344.525L266.912 344.525L263.776 319.149L273.504 319.149L273.503 344.525Z" fill="#9E616A"/>
<path d="M275.184 350.903L253.932 350.902V350.634C253.932 348.444 254.803 346.344 256.355 344.795C257.906 343.247 260.01 342.377 262.203 342.377H262.204L275.184 342.377L275.184 350.903Z" fill="#D3D3D3"/>
<path d="M196.741 166.712C197.267 167.435 197.946 168.034 198.73 168.467C199.514 168.899 200.383 169.155 201.277 169.217C202.17 169.278 203.067 169.142 203.902 168.821C204.738 168.499 205.492 167.998 206.113 167.353L219.155 172.436L224.182 165.279L205.664 158.358C204.51 157.389 203.04 156.877 201.533 156.917C200.025 156.958 198.585 157.549 197.485 158.579C196.385 159.608 195.702 161.005 195.565 162.504C195.427 164.003 195.846 165.5 196.741 166.712Z" fill="#9E616A"/>
<path d="M273.419 210.078L256.249 215.668L261.984 337.051L275.237 337.378L282.019 251.777L283.558 337.04L299.944 337.941L305.985 210.078H273.419Z" fill="#B8A68C"/>
<path d="M261.834 138.525L305.904 128.967L310.804 166.844L306.724 184.943L308.358 212.447C308.358 212.447 273.512 229.759 256.249 215.668C256.249 215.668 270.124 179.291 262.081 162.262L261.834 138.525Z" fill="#E4E4E4"/>
<path d="M269.466 143.882L261.834 138.525C261.834 138.525 261.383 137.901 255.023 145.323C248.662 152.745 235.76 164.551 235.76 164.551L214.256 156.501L210.338 170.95L235.33 182.575L270.713 158.988L269.466 143.882Z" fill="#E4E4E4"/>
<path d="M308.366 226.645C309.176 226.263 309.892 225.708 310.464 225.02C311.036 224.332 311.45 223.527 311.677 222.662C311.903 221.797 311.937 220.893 311.776 220.014C311.615 219.134 311.262 218.301 310.743 217.572L318.176 205.73L312.068 199.465L301.806 216.337C300.638 217.288 299.859 218.634 299.618 220.12C299.377 221.606 299.691 223.128 300.499 224.399C301.308 225.67 302.555 226.6 304.005 227.014C305.455 227.428 307.007 227.296 308.366 226.645Z" fill="#9E616A"/>
<path d="M299.03 136.428L305.903 128.967C305.903 128.967 313.562 126.304 319.82 140.061C326.077 153.818 333.066 181.723 333.066 181.723L316.726 213.14L304.035 207.481L316.726 181.501L303.297 162.261L299.03 136.428Z" fill="#E4E4E4"/>
<path d="M287.374 125.86C294.306 122.077 296.854 113.401 293.065 106.481C289.275 99.5617 280.583 97.0186 273.651 100.801C266.718 104.584 264.171 113.26 267.96 120.18C271.75 127.099 280.442 129.642 287.374 125.86Z" fill="#9E616A"/>
<path d="M292.575 100.562C291.899 97.7262 289.531 95.4883 286.806 94.4388C284.082 93.3893 281.048 93.3995 278.169 93.8877C273.391 94.6982 268.929 96.7552 264.532 98.7914L267.921 100.41L263.244 100.678L266.858 102.543C265.893 103.276 265.159 104.27 264.743 105.407C264.327 106.544 264.246 107.776 264.51 108.958C264.696 109.731 265.193 110.583 265.99 110.609C266.952 110.642 267.454 109.522 268.128 108.836C269.024 107.922 270.439 107.719 271.709 107.891C272.978 108.064 274.182 108.551 275.434 108.82C277.017 109.15 278.653 109.132 280.229 108.767C281.805 108.403 283.282 107.701 284.559 106.71L289.065 117.541C289.023 117.133 289.075 116.72 289.219 116.335C289.363 115.951 289.594 115.604 289.894 115.323C290.194 115.042 290.555 114.834 290.949 114.715C291.342 114.597 291.758 114.57 292.164 114.639C292.57 114.707 292.954 114.868 293.287 115.109C293.62 115.35 293.893 115.665 294.084 116.028C294.275 116.392 294.38 116.795 294.389 117.205C294.398 117.616 294.313 118.023 294.138 118.395C296.089 115.458 297.658 112.121 297.712 108.598C297.766 105.075 296.015 101.363 292.811 99.8843" fill="#24242B"/>
<path d="M126.79 319.359L120.697 328.921L124.246 316.473C116.752 308.667 106.377 302.958 106.377 302.958C106.377 302.958 93.6029 323.914 97.0412 336.805C100.479 349.697 109.358 352.158 118.828 349.641C128.299 347.124 134.776 340.583 131.338 327.691C130.573 324.822 128.91 322.005 126.79 319.359Z" fill="#F2F2F2"/>
<path d="M118.728 329.874L118.897 330.51C120.829 337.906 121.119 344.001 119.752 348.709C119.733 348.778 119.711 348.845 119.692 348.914L119.373 348.82L119.068 348.726C120.616 343.622 119.925 337.173 118.242 330.721C118.189 330.513 118.136 330.301 118.077 330.091C117.34 327.366 116.437 324.652 115.455 322.043C115.38 321.84 115.302 321.636 115.224 321.431C113.909 317.994 112.472 314.758 111.141 311.968C111.048 311.771 110.951 311.574 110.856 311.381C108.583 306.669 106.657 303.33 106.224 302.593C106.173 302.502 106.143 302.453 106.136 302.441L106.413 302.277L106.415 302.273L106.695 302.107C106.702 302.119 106.803 302.284 106.98 302.594C107.65 303.75 109.428 306.899 111.478 311.131C111.569 311.322 111.666 311.519 111.759 311.717C112.841 313.979 113.989 316.524 115.081 319.225C115.356 319.903 115.62 320.574 115.871 321.238C115.952 321.442 116.031 321.647 116.105 321.85C117.168 324.67 118.042 327.345 118.728 329.874Z" fill="white"/>
<path d="M111.478 311.131C111.274 311.216 111.068 311.301 110.856 311.381C110.282 311.598 109.697 311.786 109.103 311.944C106.574 312.62 103.925 312.721 101.352 312.239C101.264 312.441 101.176 312.643 101.086 312.848C103.8 313.38 106.599 313.286 109.271 312.573C109.904 312.405 110.529 312.203 111.141 311.968C111.349 311.89 111.556 311.804 111.759 311.717C113.435 311.004 114.993 310.041 116.38 308.862C116.199 308.725 116.021 308.59 115.847 308.458C114.531 309.559 113.058 310.46 111.478 311.131Z" fill="white"/>
<path d="M115.871 321.238C115.657 321.309 115.441 321.373 115.224 321.43C115.159 321.451 115.089 321.47 115.023 321.487C112.282 322.216 109.405 322.272 106.637 321.651C103.869 321.029 101.293 319.749 99.128 317.92C99.0514 318.139 98.9749 318.358 98.9023 318.579C101.141 320.418 103.786 321.698 106.618 322.313C109.451 322.928 112.39 322.861 115.191 322.116C115.279 322.093 115.367 322.069 115.455 322.043C115.675 321.981 115.89 321.917 116.105 321.85C119.424 320.784 122.365 318.786 124.577 316.095C124.426 315.936 124.276 315.778 124.123 315.62C121.978 318.254 119.111 320.207 115.871 321.238Z" fill="white"/>
<path d="M118.728 329.874C118.512 329.952 118.295 330.023 118.077 330.091C117.843 330.163 117.609 330.232 117.372 330.295C113.687 331.27 109.786 331.027 106.251 329.603C102.716 328.179 99.7381 325.65 97.7635 322.395C97.6896 322.688 97.6149 322.977 97.5474 323.268C99.6507 326.48 102.715 328.948 106.304 330.322C109.893 331.697 113.824 331.908 117.54 330.924C117.776 330.862 118.012 330.796 118.242 330.721C118.464 330.655 118.681 330.584 118.897 330.51C123.26 328.978 126.877 325.848 129.015 321.754C128.887 321.539 128.75 321.329 128.612 321.117C126.584 325.208 123.038 328.349 118.728 329.874Z" fill="white"/>
<path d="M364.478 320.356L358.473 329.78L361.971 317.512C354.585 309.82 344.362 304.193 344.362 304.193C344.362 304.193 331.773 324.845 335.161 337.549C338.549 350.253 347.299 352.678 356.632 350.198C365.965 347.718 372.348 341.271 368.96 328.567C368.206 325.74 366.567 322.964 364.478 320.356Z" fill="#F2F2F2"/>
<path d="M356.533 330.719L356.7 331.345C358.604 338.633 358.889 344.639 357.542 349.28C357.524 349.348 357.501 349.413 357.483 349.481L357.169 349.389L356.868 349.296C358.393 344.266 357.713 337.911 356.053 331.553C356.002 331.348 355.95 331.139 355.891 330.932C355.165 328.247 354.275 325.572 353.307 323.001C353.234 322.801 353.157 322.599 353.08 322.397C351.784 319.01 350.368 315.821 349.056 313.073C348.964 312.878 348.869 312.684 348.775 312.493C346.536 307.85 344.637 304.56 344.211 303.834C344.16 303.744 344.13 303.696 344.124 303.684L344.397 303.522L344.399 303.518L344.675 303.355C344.681 303.367 344.781 303.529 344.956 303.835C345.615 304.974 347.368 308.077 349.388 312.248C349.478 312.436 349.573 312.63 349.665 312.825C350.732 315.054 351.863 317.562 352.939 320.224C353.21 320.892 353.47 321.554 353.717 322.208C353.798 322.409 353.875 322.611 353.948 322.811C354.995 325.59 355.857 328.226 356.533 330.719Z" fill="white"/>
<path d="M349.388 312.248C349.187 312.331 348.984 312.415 348.775 312.493C348.209 312.708 347.632 312.893 347.047 313.049C344.555 313.715 341.945 313.814 339.409 313.339C339.322 313.538 339.236 313.737 339.147 313.94C341.821 314.464 344.58 314.371 347.213 313.669C347.837 313.503 348.453 313.304 349.056 313.073C349.261 312.995 349.465 312.911 349.665 312.825C351.317 312.122 352.852 311.174 354.219 310.011C354.04 309.876 353.865 309.743 353.694 309.613C352.396 310.698 350.945 311.586 349.388 312.248Z" fill="white"/>
<path d="M353.718 322.208C353.507 322.278 353.294 322.341 353.08 322.398C353.015 322.418 352.947 322.436 352.882 322.454C350.18 323.172 347.345 323.227 344.617 322.615C341.89 322.003 339.351 320.741 337.217 318.938C337.142 319.154 337.067 319.37 336.995 319.588C339.201 321.4 341.808 322.661 344.599 323.267C347.39 323.874 350.286 323.807 353.047 323.074C353.134 323.051 353.221 323.027 353.307 323.001C353.524 322.94 353.736 322.877 353.948 322.811C357.219 321.76 360.117 319.792 362.297 317.14C362.148 316.984 362 316.827 361.849 316.671C359.736 319.267 356.91 321.192 353.718 322.208Z" fill="white"/>
<path d="M356.533 330.719C356.32 330.795 356.106 330.865 355.891 330.932C355.661 331.004 355.429 331.072 355.196 331.134C351.565 332.094 347.72 331.855 344.236 330.451C340.753 329.048 337.819 326.556 335.873 323.348C335.8 323.637 335.726 323.922 335.66 324.208C337.732 327.373 340.752 329.806 344.289 331.16C347.826 332.515 351.7 332.722 355.362 331.754C355.595 331.692 355.827 331.627 356.053 331.553C356.272 331.488 356.486 331.418 356.7 331.345C360.999 329.835 364.563 326.751 366.67 322.717C366.544 322.504 366.409 322.298 366.273 322.088C364.274 326.12 360.78 329.216 356.533 330.719Z" fill="white"/>
<path d="M211.428 124.152V123.577L210.862 123.477C188.112 119.473 170.551 96.6276 170.551 68.8934C170.551 38.3032 191.897 13.6847 218.022 13.6847C244.148 13.6847 265.494 38.3032 265.494 68.8934C265.494 96.6276 247.933 119.473 225.183 123.477L224.617 123.577V124.152V129.419C224.617 130.232 224.294 131.012 223.717 131.587C223.141 132.163 222.359 132.486 221.543 132.486H214.502C213.686 132.486 212.904 132.163 212.328 131.587C211.751 131.012 211.428 130.232 211.428 129.419V124.152Z" fill="white" stroke="#E0D4C1" stroke-width="1.36944"/>
<path d="M198.87 129.876C199.97 128.844 201.281 128.063 202.713 127.585C204.144 127.107 205.662 126.944 207.163 127.107C208.675 127.282 210.126 127.805 211.401 128.635C212.676 129.465 213.741 130.579 214.511 131.89C215.282 133.162 215.766 134.586 215.929 136.063C216.093 137.54 215.933 139.035 215.461 140.445C214.536 143.255 212.572 145.594 210.557 147.702C208.444 149.914 206.146 151.954 204.159 154.285C200.883 158.151 198.596 162.753 197.493 167.696C196.39 172.638 196.505 177.774 197.827 182.663C199.57 188.859 203.169 194.376 208.142 198.473C208.773 198.988 209.423 199.478 210.092 199.944C210.867 200.485 211.6 199.218 210.832 198.681C205.433 194.869 201.443 189.387 199.48 183.084C197.99 178.172 197.8 172.96 198.926 167.952C200.053 162.945 202.458 158.314 205.909 154.51C208.004 152.2 210.351 150.133 212.445 147.823C214.452 145.609 216.282 143.113 217.066 140.189C217.463 138.702 217.561 137.152 217.355 135.627C217.149 134.103 216.644 132.634 215.867 131.305C215.094 129.947 214.048 128.762 212.794 127.826C211.541 126.89 210.108 126.223 208.584 125.865C205.519 125.2 202.314 125.754 199.652 127.409C198.999 127.825 198.39 128.304 197.834 128.841C197.154 129.496 198.191 130.529 198.87 129.876Z" fill="#E0D4C1"/>
<path d="M76.46 135.505L76.3118 135.164L75.9505 135.251C49.4276 141.624 19.704 125.109 6.66132 95.1216C-7.72218 62.0518 3.70509 25.3274 32.0035 13.016C60.3018 0.704575 94.9553 17.381 109.339 50.4509C122.381 80.438 114.198 113.446 91.4533 128.507L91.1436 128.712L91.2917 129.052L93.7583 134.723C94.1774 135.687 94.1966 136.778 93.8117 137.755C93.4268 138.733 92.6693 139.518 91.7058 139.937L84.1395 143.229C83.1761 143.648 82.0856 143.667 81.1079 143.282C80.1303 142.897 79.3456 142.14 78.9265 141.176L76.46 135.505Z" fill="white" stroke="#E0D4C1" stroke-width="0.885496"/>
<path d="M80.1478 136.472C80.8469 134.864 81.8765 133.421 83.17 132.236C84.4635 131.051 85.992 130.151 87.6564 129.593C89.2908 129.044 91.0257 128.857 92.7398 129.047C94.4538 129.238 96.1055 129.799 97.5792 130.693C99.0975 131.591 100.407 132.802 101.419 134.244C102.432 135.687 103.125 137.328 103.452 139.059C104.203 143.071 102.984 147.157 101.599 150.892C100.148 154.807 98.3392 158.609 97.33 162.675C95.9255 168.389 95.8971 174.354 97.2471 180.081C98.5972 185.809 101.287 191.135 105.097 195.625C109.895 201.175 116.215 205.204 123.278 207.214C124.144 207.458 125.02 207.666 125.902 207.845C126.822 208.031 127.216 206.621 126.291 206.434C118.943 204.924 112.246 201.172 107.127 195.697C101.7 189.841 98.422 182.322 97.827 174.367C97.5084 170.337 97.8785 166.282 98.9215 162.375C100.035 158.253 101.919 154.393 103.34 150.376C104.696 146.544 105.657 142.428 104.805 138.372C104.022 134.801 101.851 131.686 98.7685 129.711C97.2913 128.739 95.6353 128.069 93.8967 127.741C92.158 127.414 90.3715 127.434 88.6408 127.801C85.1064 128.6 82.0098 130.714 79.981 133.711C79.4875 134.458 79.0701 135.253 78.7349 136.083C78.3747 136.952 79.7917 137.331 80.1478 136.472Z" fill="#E0D4C1"/>
<path d="M405.249 367.359L413.146 367.358L416.903 336.951L405.247 336.951L405.249 367.359Z" fill="#FFB6B6"/>
<path d="M403.234 364.784L418.787 364.784H418.788C421.417 364.784 423.938 365.826 425.797 367.682C427.656 369.537 428.7 372.053 428.7 374.677V374.999L403.234 375L403.234 364.784Z" fill="#D3D3D3"/>
<path d="M358.503 360.655L366.033 363.032L378.803 335.172L367.69 331.663L358.503 360.655Z" fill="#FFB6B6"/>
<path d="M357.36 357.594L372.189 362.276L372.19 362.276C374.696 363.068 376.785 364.821 377.996 367.15C379.208 369.478 379.443 372.192 378.651 374.694L378.553 375L354.273 367.334L357.36 357.594Z" fill="#D3D3D3"/>
<path d="M376.285 228.485L371.903 240.823L371.778 307.432L359.35 353.037L374.606 357.287L391.459 314.286L396.865 276.516L403.988 314.505L403.008 359.659H419.015L420.224 290.077C420.563 270.535 417.138 251.111 410.133 232.86L376.285 228.485Z" fill="#B8A68C"/>
<path d="M371.066 178.506H396.94L407.751 189.297L410.981 233.905L371.903 240.182L359.35 197.62L366.186 179.532L371.066 178.506Z" fill="#E4E4E4"/>
<path d="M361.761 198.046L321.924 183.085L320.887 176.9L346.01 155.68L354.372 161.941L339.216 178.506L366.185 179.532L361.761 198.046Z" fill="#E4E4E4"/>
<path d="M350.842 164.359C354.4 164.359 357.284 161.481 357.284 157.929C357.284 154.378 354.4 151.499 350.842 151.499C347.284 151.499 344.4 154.378 344.4 157.929C344.4 161.481 347.284 164.359 350.842 164.359Z" fill="#FFB6B6"/>
<path d="M365.782 166.03L368.693 152.928C369.204 150.62 370.165 148.436 371.521 146.499C372.878 144.563 374.604 142.912 376.6 141.641C378.596 140.371 380.823 139.505 383.155 139.095C385.486 138.684 387.876 138.736 390.187 139.247C392.498 139.759 394.686 140.72 396.625 142.076C398.564 143.432 400.216 145.156 401.487 147.15C402.758 149.144 403.622 151.368 404.032 153.696C404.441 156.023 404.387 158.408 403.872 160.715L400.961 173.817C400.821 174.442 400.439 174.987 399.898 175.331C399.356 175.675 398.701 175.791 398.074 175.653L367.621 168.912C366.995 168.772 366.45 168.391 366.105 167.85C365.76 167.31 365.644 166.656 365.782 166.03Z" fill="#28282F"/>
<path d="M385.837 170.969C392.844 168.942 396.878 161.629 394.848 154.635C392.818 147.641 385.492 143.614 378.485 145.641C371.478 147.667 367.443 154.98 369.474 161.974C371.504 168.968 378.83 172.995 385.837 170.969Z" fill="#FFB6B6"/>
<path d="M364.299 153.055C365.121 149.374 367.373 146.168 370.56 144.142C373.747 142.116 377.609 141.434 381.298 142.246L383.924 142.828C387.612 143.648 390.823 145.896 392.853 149.077C394.883 152.258 395.566 156.113 394.752 159.796L394.694 160.058L389.146 158.83L388.428 153.122L386.875 158.327L384.008 157.693L383.646 154.813L382.862 157.439L364.241 153.317L364.299 153.055Z" fill="#28282F"/>
<path d="M377.637 172.674C377.455 172.264 377.392 171.812 377.456 171.368C377.52 170.924 377.709 170.508 378 170.166C381.955 165.5 388.019 156.603 384.186 149.44L383.91 148.925L398.92 152.247L393.923 174.741L379.754 174.124C379.61 174.118 379.468 174.1 379.327 174.069C378.955 173.986 378.608 173.817 378.314 173.575C378.02 173.332 377.788 173.024 377.637 172.674Z" fill="#28282F"/>
<path d="M395.911 178.776L438.05 184.757L440.407 190.57L420.491 216.723L410.968 212.422L422.164 192.97L395.614 197.808L395.911 178.776Z" fill="#E4E4E4"/>
<path d="M419.64 140.243V139.824L419.226 139.751C394.524 135.395 375.5 110.561 375.5 80.4651C375.5 47.2739 398.625 20.5 427 20.5C455.375 20.5 478.5 47.2739 478.5 80.4651C478.5 110.561 459.476 135.395 434.774 139.751L434.36 139.824V140.243V145.941C434.36 146.885 433.986 147.79 433.318 148.458C432.651 149.125 431.746 149.5 430.802 149.5H423.198C422.254 149.5 421.349 149.125 420.682 148.458C420.014 147.79 419.64 146.885 419.64 145.941V140.243Z" fill="white" stroke="#E0D4C1"/>
<path d="M409.538 146.011C410.871 144.76 412.461 143.813 414.197 143.236C415.934 142.659 417.775 142.465 419.594 142.668C421.381 142.878 423.096 143.491 424.61 144.461C426.124 145.431 427.398 146.732 428.333 148.266C429.286 149.78 429.898 151.482 430.129 153.254C430.359 155.027 430.202 156.828 429.669 158.535C428.633 161.884 426.358 164.688 423.987 167.202C421.458 169.884 418.687 172.336 416.269 175.122C412.327 179.695 409.556 185.155 408.196 191.033C406.835 196.911 406.925 203.031 408.458 208.866C410.509 216.367 414.842 223.047 420.859 227.984C421.589 228.577 422.341 229.144 423.114 229.682C423.889 230.223 424.622 228.955 423.854 228.419C417.41 223.873 412.638 217.344 410.268 209.831C408.468 203.967 408.213 197.739 409.528 191.748C410.842 185.757 413.681 180.205 417.771 175.628C420.257 172.858 423.056 170.391 425.571 167.648C427.978 165.021 430.189 162.072 431.178 158.6C431.676 156.847 431.82 155.013 431.603 153.204C431.386 151.394 430.812 149.646 429.914 148.06C429.019 146.437 427.799 145.017 426.328 143.888C424.858 142.758 423.17 141.945 421.37 141.497C417.712 140.658 413.869 141.294 410.678 143.267C409.896 143.761 409.166 144.334 408.501 144.977C407.822 145.632 408.859 146.666 409.538 146.011Z" fill="#E0D4C1"/>
<path d="M414.618 224.161C418.176 224.161 421.06 221.282 421.06 217.731C421.06 214.179 418.176 211.3 414.618 211.3C411.06 211.3 408.176 214.179 408.176 217.731C408.176 221.282 411.06 224.161 414.618 224.161Z" fill="#FFB6B6"/>
<path d="M347.488 159.734C347.15 160.268 346.331 160.19 345.872 159.857C345.233 159.394 345.44 158.502 345.879 157.976C347.277 156.302 349.587 158.069 349.899 159.732C350.015 160.542 349.89 161.369 349.539 162.109C349.189 162.85 348.628 163.471 347.927 163.897C346.333 164.839 344.263 164.367 342.892 163.238C340.033 160.884 340.812 156.171 343.987 154.468C346.014 153.381 348.576 153.858 350.572 154.768C352.82 155.793 354.752 157.364 356.83 158.673C361.39 161.523 366.549 163.281 371.902 163.811C372.839 163.906 372.833 162.443 371.902 162.348C368.936 162.042 366.023 161.342 363.242 160.267C360.49 159.153 357.879 157.722 355.46 156.003C353.013 154.329 350.457 152.703 347.428 152.426C346.206 152.283 344.968 152.466 343.84 152.956C342.712 153.446 341.734 154.226 341.005 155.216C340.357 156.101 339.923 157.125 339.738 158.205C339.552 159.286 339.62 160.395 339.936 161.446C340.316 162.544 340.982 163.522 341.864 164.281C342.746 165.039 343.814 165.55 344.959 165.763C346.061 165.971 347.201 165.83 348.219 165.361C349.237 164.891 350.083 164.116 350.638 163.144C351.753 161.22 351.717 158.635 350.033 157.039C349.551 156.55 348.947 156.197 348.283 156.017C347.619 155.836 346.919 155.835 346.254 156.013C345.642 156.22 345.103 156.6 344.704 157.107C344.304 157.614 344.062 158.227 344.006 158.87C343.843 161.367 347.395 162.616 348.753 160.472C349.258 159.675 347.991 158.94 347.488 159.734Z" fill="#3F3D56"/>
<path d="M54.3532 238.333L52.4182 240.757L45.5737 236.715L47.5088 234.292L54.3532 238.333Z" fill="#E4E4E4"/>
<path d="M61.4954 248.747L63.2048 251.293L56.0146 254.863L54.3052 252.317L61.4954 248.747Z" fill="#E4E4E4"/>
<path d="M68.9386 237.677L72.3544 237.798L72.0145 244.932L68.5986 244.811L68.9386 237.677Z" fill="#E4E4E4"/>
<path d="M134.94 45.2792L133.005 47.7027L126.16 43.6612L128.095 41.2373L134.94 45.2792Z" fill="#E4E4E4"/>
<path d="M142.082 55.6934L143.791 58.2396L136.601 61.8097L134.892 59.2634L142.082 55.6934Z" fill="#E4E4E4"/>
<path d="M149.525 44.623L152.941 44.7435L152.601 51.8777L149.185 51.7573L149.525 44.623Z" fill="#E4E4E4"/>
<path d="M324.928 70.6298L322.993 73.0532L316.148 69.0118L318.084 66.5879L324.928 70.6298Z" fill="#E4E4E4"/>
<path d="M332.07 81.043L333.78 83.5892L326.589 87.1593L324.88 84.613L332.07 81.043Z" fill="#E4E4E4"/>
<path d="M339.513 69.9736L342.929 70.094L342.589 77.2283L339.173 77.1079L339.513 69.9736Z" fill="#E4E4E4"/>
<path d="M266.808 35.0419L264.873 37.4654L258.029 33.4239L259.964 31L266.808 35.0419Z" fill="#E4E4E4"/>
<path d="M273.95 45.4551L275.659 48.0013L268.469 51.5714L266.76 49.0251L273.95 45.4551Z" fill="#E4E4E4"/>
<path d="M281.393 34.3857L284.809 34.5062L284.469 41.6404L281.053 41.52L281.393 34.3857Z" fill="#E4E4E4"/>
<path d="M325.898 217.229L323.963 220.042L330.807 224.733L332.743 221.92L325.898 217.229Z" fill="#E4E4E4"/>
<path d="M332.694 238.151L334.403 241.106L341.594 236.962L339.884 234.007L332.694 238.151Z" fill="#E4E4E4"/>
<path d="M346.987 229.439L350.403 229.579L350.743 221.298L347.327 221.159L346.987 229.439Z" fill="#E4E4E4"/>
<path d="M180.704 344.894L186.621 343.98L182.565 296.789L169.378 299.227L180.704 344.894Z" fill="#FFB6B6"/>
<path d="M178.896 343.198L190.549 341.399C192.519 341.095 194.529 341.585 196.137 342.76C197.745 343.935 198.82 345.7 199.125 347.666L199.162 347.907L180.082 350.852L178.896 343.198Z" fill="#252526"/>
<path d="M118.513 344.309L124.495 344.563L131.771 302.639L118.584 302.639L118.513 344.309Z" fill="#FFB6B6"/>
<path d="M117.07 342.294L128.851 342.795H128.852C130.843 342.88 132.719 343.751 134.067 345.216C135.415 346.681 136.124 348.621 136.04 350.609L136.029 350.852L116.74 350.032L117.07 342.294Z" fill="#252526"/>
<path d="M130.291 207.718C130.008 207.638 129.719 207.585 129.427 207.557L133.157 177.087L145.811 150.339C146.607 148.656 146.734 146.735 146.167 144.962C145.599 143.19 144.38 141.698 142.754 140.787C141.128 139.877 139.217 139.616 137.405 140.057C135.594 140.498 134.018 141.608 132.995 143.164C129.678 148.204 127.17 153.73 125.559 159.542L120.243 178.729L124.13 211.632C123.981 212.56 124.104 213.51 124.483 214.37C124.863 215.229 125.483 215.961 126.269 216.477C127.055 216.993 127.974 217.271 128.915 217.278C129.856 217.285 130.779 217.02 131.573 216.516C132.367 216.011 132.998 215.289 133.39 214.435C133.782 213.581 133.918 212.632 133.783 211.703C133.647 210.773 133.246 209.903 132.626 209.196C132.007 208.489 131.196 207.975 130.291 207.718Z" fill="#FFB6B6"/>
<path d="M137.974 179.667L121.986 161.411L129.906 142.817C130.943 140.382 132.893 138.448 135.338 137.427C137.784 136.407 140.533 136.381 142.997 137.356C145.461 138.33 147.447 140.227 148.529 142.642C149.612 145.057 149.706 147.799 148.792 150.282L137.974 179.667Z" fill="#7A6C59"/>
<path d="M164.55 121.469C168.396 114.445 165.81 105.639 158.774 101.8C151.738 97.9607 142.916 100.542 139.069 107.565C135.223 114.589 137.809 123.395 144.845 127.234C151.881 131.073 160.704 128.492 164.55 121.469Z" fill="#FFB6B6"/>
<path d="M154.237 96.9102H144.858C138.709 96.9102 133.725 102.508 133.725 109.413L134.159 126.161C140.803 126.986 147.301 128.721 153.471 131.317L154.346 127.585L156.073 132.499C157.609 133.242 159.131 134.054 160.641 134.936C158.879 126.672 158.154 118.427 159.364 112.023H162.54V108.553L163.619 112.023H169.378C169.378 110.038 168.986 108.073 168.225 106.24C167.465 104.406 166.349 102.74 164.943 101.337C163.537 99.9332 161.868 98.82 160.031 98.0605C158.195 97.301 156.226 96.9101 154.237 96.9102Z" fill="#26262E"/>
<path d="M184.82 299.353L183.461 299.679L182.321 278.507L174.018 215.131L164.494 190.999L169.134 174.18C169.134 174.18 174.506 162.48 161.075 153.461L150.33 135.423C142.908 130.579 136.802 133.746 133.546 141.98C130.71 149.154 128.508 158.23 129.817 167.599C132.751 188.584 135.19 190.999 135.19 190.999C135.19 190.999 116.875 211.231 120.782 237.069L118.604 303.967L116.612 303.885L116.394 309.199L133.799 309.911L134.017 304.598L132.573 304.539L138.853 278.02L148.133 242.919L164.25 285.82L169.671 302.994L167.885 303.424L169.132 308.594L186.067 304.523L184.82 299.353Z" fill="#7A6C59"/>
<path d="M196.78 179.223C196.583 179.44 196.406 179.674 196.251 179.922L170.608 162.978L152.288 139.726C151.135 138.263 149.47 137.291 147.628 137.006C145.786 136.721 143.904 137.143 142.361 138.188C140.819 139.234 139.731 140.824 139.317 142.638C138.903 144.453 139.194 146.356 140.131 147.965C143.167 153.179 146.998 157.888 151.488 161.923L166.309 175.243L197.536 186.473C198.301 187.021 199.207 187.336 200.147 187.381C201.087 187.426 202.02 187.2 202.834 186.728C203.648 186.256 204.308 185.56 204.734 184.723C205.161 183.886 205.336 182.943 205.238 182.009C205.141 181.075 204.775 180.188 204.185 179.457C203.595 178.725 202.806 178.179 201.912 177.885C201.019 177.591 200.059 177.56 199.148 177.798C198.238 178.035 197.415 178.53 196.78 179.223Z" fill="#FFB6B6"/>
<path d="M175.072 159.829L151.567 165.948L138.44 150.568C136.721 148.554 135.858 145.949 136.037 143.309C136.215 140.669 137.42 138.203 139.394 136.438C141.369 134.672 143.956 133.747 146.604 133.859C149.253 133.971 151.752 135.112 153.569 137.039L175.072 159.829Z" fill="#7A6C59"/>
<path d="M357.259 351.348H41.1196C40.9654 351.348 40.8175 351.287 40.7084 351.178C40.5994 351.07 40.5381 350.922 40.5381 350.768C40.5381 350.614 40.5994 350.466 40.7084 350.358C40.8175 350.249 40.9654 350.188 41.1196 350.188H357.259C357.413 350.188 357.561 350.249 357.67 350.358C357.779 350.466 357.841 350.614 357.841 350.768C357.841 350.922 357.779 351.07 357.67 351.178C357.561 351.287 357.413 351.348 357.259 351.348Z" fill="#CACACA"/>
<path d="M77.1413 90.1821H68.2147V104H61.6114V90.1821H32.7935V84.4755L61.163 44.0815H68.2147V84.0679H77.1413V90.1821ZM61.6114 84.0679V64.5842C61.6114 63.0897 61.625 61.7446 61.6522 60.5489C61.6793 59.3261 61.7201 58.1984 61.7745 57.1658C61.8288 56.106 61.8696 55.1005 61.8967 54.1495C61.9511 53.1984 61.9918 52.2609 62.019 51.337H61.6929C61.1766 52.4239 60.5788 53.5788 59.8995 54.8016C59.2473 55.9973 58.5815 57.0707 57.9022 58.0217L39.519 84.0679H61.6114Z" fill="#B8A68C"/>
<path d="M239.243 69.2935C239.243 74.1027 238.878 78.3986 238.148 82.1812C237.419 85.9637 236.271 89.1654 234.704 91.7861C233.137 94.4069 231.11 96.4062 228.625 97.7842C226.139 99.1351 223.153 99.8105 219.668 99.8105C215.264 99.8105 211.617 98.6082 208.726 96.2036C205.862 93.799 203.714 90.3271 202.282 85.7881C200.877 81.222 200.174 75.7238 200.174 69.2935C200.174 62.9712 200.809 57.5405 202.079 53.0015C203.376 48.4354 205.456 44.9365 208.32 42.5049C211.184 40.0462 214.967 38.8169 219.668 38.8169C224.126 38.8169 227.8 40.0327 230.691 42.4644C233.582 44.869 235.73 48.3543 237.135 52.9204C238.54 57.4595 239.243 62.9172 239.243 69.2935ZM206.942 69.2935C206.942 74.8052 207.361 79.3983 208.199 83.0728C209.036 86.7472 210.387 89.5031 212.251 91.3403C214.143 93.1506 216.615 94.0557 219.668 94.0557C222.721 94.0557 225.18 93.1506 227.044 91.3403C228.935 89.5301 230.3 86.7878 231.137 83.1133C232.002 79.4388 232.434 74.8322 232.434 69.2935C232.434 63.8628 232.015 59.3237 231.178 55.6763C230.34 52.0018 228.989 49.2459 227.125 47.4087C225.261 45.5444 222.775 44.6123 219.668 44.6123C216.561 44.6123 214.075 45.5444 212.211 47.4087C210.347 49.2459 208.996 52.0018 208.158 55.6763C207.348 59.3237 206.942 63.8628 206.942 69.2935Z" fill="#B8A68C"/>
<path d="M444.877 96.2612H436.001V110H429.436V96.2612H400.783V90.5874L428.99 50.4248H436.001V90.1821H444.877V96.2612ZM429.436 90.1821V70.8101C429.436 69.3241 429.45 67.9867 429.477 66.7979C429.504 65.582 429.544 64.4608 429.598 63.4341C429.652 62.3804 429.693 61.3807 429.72 60.4351C429.774 59.4894 429.814 58.5573 429.841 57.6387H429.517C429.004 58.7194 428.409 59.8677 427.734 61.0835C427.085 62.2723 426.424 63.3395 425.748 64.2852L407.47 90.1821H429.436Z" fill="#B8A68C"/>
</svg>
